<mxfile host="app.diagrams.net" modified="2023-10-31T10:55:42.212Z" agent="Mozilla/5.0 (Macintosh; Intel Mac OS X 10_15_7) AppleWebKit/605.1.15 (KHTML, like Gecko) Version/15.6.1 Safari/605.1.15" version="22.0.8" etag="TgjjCaphA-Ot9S4zJSIf" type="github">
  <diagram name="PÃ¡gina-1" id="ggfEi3nzAvzezBvg11S8">
    <mxGraphModel>
      <root>
        <mxCell id="0" />
        <mxCell id="1" parent="0" />
      </root>
    </mxGraphModel>
  </diagram>
</mxfile>
